# xmcd
#
# Track frame offsets:
# 150
# 20173
# 44170
# 72263
# 101093
# 122130
# 141538
# 154485
# 185025
# 204428
#
# Disc length: 3114 seconds
#
#
# Revision: 0
# Processed by: cddbd v1.5.2PL0 Copyright (c) Steve Scherf et al.
# Submitted via: Nero 7, 11, 10, 0 
#
DISCID=a40c280a
DTITLE=Johnny Mars and Big Fat Mama - Can You Hear Me?
DYEAR=1993
DGENRE=Blues
TTITLE0=Just A Little Bit
TTITLE1=Living In The Ghetto
TTITLE2=A Change Will Come
TTITLE3=Crosstown Woman
TTITLE4=Driving Sideways
TTITLE5=You Drive Me Crazy
TTITLE6=Can You Hear Me?
TTITLE7=I'm Hungry Blues
TTITLE8=Harp Funk
TTITLE9=Hoochie Coochie Man
EXTD=
EXTT0=Just A Little Bit
EXTT1=Living In The Ghetto
EXTT2=A Change Will Come
EXTT3=Crosstown Woman
EXTT4=Driving Sideways
EXTT5=You Drive Me Crazy
EXTT6=Can You Hear Me?
EXTT7=I'm Hungry Blues
EXTT8=Harp Funk
EXTT9=Hoochie Coochie Man
PLAYORDER=
